<svg width="79" height="28" viewBox="0 0 79 28" fill="none" xmlns="http://www.w3.org/2000/svg">
<path d="M47.2254 14L52.3852 8.44051C52.8908 7.89573 52.8908 7.01571 52.3852 6.47094L46.7586 0.408581C46.253 -0.136194 45.4363 -0.136194 44.9307 0.408581L39.7709 5.96807L34.6111 0.408581C34.3518 0.143178 34.0277 0.00349223 33.6906 0.00349223C33.3665 0.00349223 33.0294 0.143178 32.7831 0.408581L27.1566 6.47094C26.6509 7.01571 26.6509 7.89573 27.1566 8.44051L32.3164 14L27.1566 19.5595C26.6509 20.1043 26.6509 20.9843 27.1566 21.5291L32.7831 27.5914C33.2887 28.1362 34.1054 28.1362 34.6111 27.5914L39.7709 22.0319L44.9307 27.5914C45.19 27.8708 45.5141 27.9965 45.8511 27.9965C46.1882 27.9965 46.5123 27.8568 46.7716 27.5914L52.3981 21.5291C52.9037 20.9843 52.9037 20.1043 52.3981 19.5595L47.2254 14ZM39.7968 9.78149C40.5098 9.78149 41.0932 10.4101 41.0932 11.1783C41.0932 11.9466 40.5098 12.5752 39.7968 12.5752C39.0838 12.5752 38.5004 11.9466 38.5004 11.1783C38.5004 10.4101 39.0838 9.78149 39.7968 9.78149ZM33.6906 12.5193L28.9845 7.46271L33.6906 2.39212L38.3837 7.44874L33.6906 12.5193ZM37.2039 15.3689C36.4909 15.3689 35.9075 14.7403 35.9075 13.9721C35.9075 13.2038 36.4909 12.5752 37.2039 12.5752C37.917 12.5752 38.5004 13.2038 38.5004 13.9721C38.5004 14.7403 37.917 15.3689 37.2039 15.3689ZM39.7968 18.1626C39.0838 18.1626 38.5004 17.534 38.5004 16.7658C38.5004 15.9975 39.0838 15.3689 39.7968 15.3689C40.5098 15.3689 41.0932 15.9975 41.0932 16.7658C41.0932 17.534 40.5098 18.1626 39.7968 18.1626ZM42.3897 12.5752C43.1027 12.5752 43.6861 13.2038 43.6861 13.9721C43.6861 14.7403 43.1027 15.3689 42.3897 15.3689C41.6766 15.3689 41.0932 14.7403 41.0932 13.9721C41.0932 13.2038 41.6766 12.5752 42.3897 12.5752ZM45.8382 25.6219L41.1321 20.5652L45.8382 15.4946L50.5313 20.5513L45.8382 25.6219Z" fill="#4E4B4B"/>
<path d="M7.30664 15.9023V18H2.2207V15.9023H3.11719V14.1855L0.662109 10.7402H0V8.67773H4.99219V10.7402H4.46484L5.53125 12.2988L6.36914 10.7402H5.51953V8.67773H9.25195V10.7402H8.19727L6.38672 13.8691V15.9023H7.30664Z" fill="white"/>
<path d="M14.2383 18.1699C13.2656 18.1699 12.4238 17.9609 11.7129 17.543C11.0059 17.125 10.4668 16.5508 10.0957 15.8203C9.72852 15.0898 9.54492 14.2559 9.54492 13.3184C9.54492 12.3457 9.72852 11.498 10.0957 10.7754C10.4629 10.0488 10.998 9.48828 11.7012 9.09375C12.4082 8.69531 13.2539 8.49609 14.2383 8.49609C15.2188 8.49609 16.0625 8.69336 16.7695 9.08789C17.4727 9.48633 18.0078 10.0488 18.375 10.7754C18.7461 11.502 18.9316 12.3496 18.9316 13.3184C18.9316 14.2559 18.748 15.0898 18.3809 15.8203C18.0137 16.5508 17.4746 17.125 16.7637 17.543C16.0566 17.9609 15.2148 18.1699 14.2383 18.1699ZM14.2383 16.0898C14.6602 16.0898 14.9824 15.834 15.2051 15.3223C15.4316 14.8105 15.5449 14.127 15.5449 13.2715C15.5449 12.4395 15.4355 11.7812 15.2168 11.2969C15.002 10.8125 14.6758 10.5703 14.2383 10.5703C13.7969 10.5703 13.4688 10.8125 13.2539 11.2969C13.0391 11.7812 12.9316 12.4395 12.9316 13.2715C12.9316 14.127 13.043 14.8105 13.2656 15.3223C13.4883 15.834 13.8125 16.0898 14.2383 16.0898Z" fill="white"/>
<path d="M24.709 18.1699C23.3184 18.1699 22.3164 17.8066 21.7031 17.0801C21.0938 16.3496 20.7891 15.2793 20.7891 13.8691V10.7402H19.8398V8.67773H24.9258V10.7402H24.0645V14.666C24.0645 15.0488 24.1582 15.3633 24.3457 15.6094C24.5332 15.8516 24.8281 15.9727 25.2305 15.9727C25.5664 15.9727 25.832 15.873 26.0273 15.6738C26.2227 15.4707 26.3203 15.1973 26.3203 14.8535V10.7402H25.3594V8.67773H29.1855V10.7402H28.2891V14.7715C28.2891 15.5176 28.1387 16.1445 27.8379 16.6523C27.541 17.1562 27.125 17.5352 26.5898 17.7891C26.0547 18.043 25.4277 18.1699 24.709 18.1699Z" fill="white"/>
<path d="M34.6172 18.1699C33.75 18.1699 32.9609 17.9863 32.25 17.6191C31.5312 17.2559 30.957 16.709 30.5273 15.9785C30.1016 15.248 29.8887 14.3496 29.8887 13.2832C29.8887 12.3926 30.0508 11.582 30.375 10.8516C30.6992 10.1289 31.1738 9.55664 31.7988 9.13477C32.4277 8.70898 33.1875 8.49609 34.0781 8.49609C34.5312 8.49609 34.9375 8.60352 35.2969 8.81836C35.6602 9.0293 35.9219 9.29688 36.082 9.62109L36.3223 8.67773H38.1445V12.5039H36.2754V12.3105C36.2754 11.8145 36.1602 11.4082 35.9297 11.0918C35.7031 10.7754 35.3652 10.6172 34.916 10.6172C34.6152 10.6172 34.3379 10.7324 34.084 10.9629C33.834 11.1973 33.6367 11.5039 33.4922 11.8828C33.3477 12.2578 33.2754 12.6445 33.2754 13.043C33.2754 13.8281 33.4707 14.4434 33.8613 14.8887C34.252 15.3301 34.7871 15.5508 35.4668 15.5508C35.9473 15.5508 36.3926 15.4707 36.8027 15.3105C37.2168 15.1504 37.5566 14.9785 37.8223 14.7949L37.9512 14.9062V17.4023C37.4551 17.6875 36.9316 17.8867 36.3809 18C35.8301 18.1133 35.2422 18.1699 34.6172 18.1699Z" fill="white"/>
<path d="M46.8223 13.8457V18H39.334V15.9023H40.2715V10.7402H39.334V8.67773H44.2031V10.7402H43.2715V15.9023H44.7715L45.334 13.8457H46.8223Z" fill="white"/>
<path d="M52.6172 15.9375V18H47.748V15.9375H48.6855V10.7402H47.748V8.67773H52.6172V10.7402H51.6855V15.9375H52.6172Z" fill="white"/>
<path d="M57.2227 15.9023V18H53.4902V15.9023H54.4395V10.7285H53.5137V8.66602H57.8203L60.7383 14.209V10.7402H59.8008V8.67773H63.5332V10.7402H62.6074V18H59.0566L56.2852 12.8496V15.9023H57.2227Z" fill="white"/>
<path d="M69.4922 15.9375V18H64.623V15.9375H65.5605V10.7402H64.623V8.67773H69.4922V10.7402H68.5605V15.9375H69.4922Z" fill="white"/>
<path d="M74.9883 18.1699C74.1211 18.1699 73.332 17.9863 72.6211 17.6191C71.9023 17.2559 71.3281 16.709 70.8984 15.9785C70.4727 15.248 70.2598 14.3496 70.2598 13.2832C70.2598 12.3926 70.4219 11.582 70.7461 10.8516C71.0703 10.1289 71.5449 9.55664 72.1699 9.13477C72.7988 8.70898 73.5586 8.49609 74.4492 8.49609C74.9023 8.49609 75.3086 8.60352 75.668 8.81836C76.0312 9.0293 76.293 9.29688 76.4531 9.62109L76.6934 8.67773H78.5156V12.5039H76.6465V12.3105C76.6465 11.8145 76.5312 11.4082 76.3008 11.0918C76.0742 10.7754 75.7363 10.6172 75.2871 10.6172C74.9863 10.6172 74.709 10.7324 74.4551 10.9629C74.2051 11.1973 74.0078 11.5039 73.8633 11.8828C73.7188 12.2578 73.6465 12.6445 73.6465 13.043C73.6465 13.8281 73.8418 14.4434 74.2324 14.8887C74.623 15.3301 75.1582 15.5508 75.8379 15.5508C76.3184 15.5508 76.7637 15.4707 77.1738 15.3105C77.5879 15.1504 77.9277 14.9785 78.1934 14.7949L78.3223 14.9062V17.4023C77.8262 17.6875 77.3027 17.8867 76.752 18C76.2012 18.1133 75.6133 18.1699 74.9883 18.1699Z" fill="white"/>
</svg>
